<?xml version="1.0" encoding="utf-8"?>
<!-- Generated by IcoMoon.io -->
<!DOCTYPE svg PUBLIC "-//W3C//DTD SVG 1.1//EN" "http://www.w3.org/Graphics/SVG/1.1/DTD/svg11.dtd">
<svg version="1.1" xmlns="http://www.w3.org/2000/svg" xmlns:xlink="http://www.w3.org/1999/xlink" width="25" height="25" viewBox="0 0 25 25">
<path fill="#fff" d="M23.090 8.985l-10.938-7.292c-0.262-0.175-0.604-0.175-0.867 0l-10.938 7.292c-0.217 0.145-0.348 0.389-0.348 0.65v7.292c0 0.261 0.131 0.505 0.348 0.65l10.938 7.292c0.131 0.087 0.282 0.131 0.433 0.131s0.302-0.044 0.433-0.131l10.938-7.292c0.217-0.145 0.348-0.389 0.348-0.65v-7.292c0-0.261-0.131-0.505-0.348-0.65zM11.719 15.988l-4.060-2.707 4.060-2.707 4.060 2.707-4.060 2.707zM12.5 9.217v-5.414l8.748 5.832-4.060 2.707-4.688-3.125zM10.938 9.217l-4.688 3.125-4.060-2.707 8.748-5.832v5.414zM4.842 13.281l-3.279 2.186v-4.372l3.279 2.186zM6.25 14.22l4.688 3.125v5.414l-8.748-5.832 4.060-2.707zM12.5 17.345l4.688-3.125 4.060 2.707-8.748 5.832v-5.414zM18.596 13.281l3.279-2.186v4.372l-3.279-2.186z"></path>
</svg>
