<?xml version="1.0" encoding="utf-8"?>
<!-- Generated by IcoMoon.io -->
<!DOCTYPE svg PUBLIC "-//W3C//DTD SVG 1.1//EN" "http://www.w3.org/Graphics/SVG/1.1/DTD/svg11.dtd">
<svg version="1.1" xmlns="http://www.w3.org/2000/svg" xmlns:xlink="http://www.w3.org/1999/xlink" width="45" height="45" viewBox="0 0 25 25">
<path fill="#373737" d="M12.5 0.309c-6.903 0-12.5 5.596-12.5 12.5 0 5.523 3.582 10.208 8.548 11.861 0.625 0.116 0.854-0.271 0.854-0.601 0-0.298-0.012-1.283-0.017-2.327-3.478 0.756-4.212-1.475-4.212-1.475-0.568-1.445-1.388-1.829-1.388-1.829-1.134-0.776 0.086-0.76 0.086-0.76 1.255 0.088 1.916 1.288 1.916 1.288 1.115 1.911 2.924 1.358 3.638 1.039 0.112-0.808 0.436-1.359 0.794-1.671-2.777-0.316-5.695-1.388-5.695-6.178 0-1.365 0.488-2.48 1.288-3.355-0.13-0.315-0.558-1.586 0.121-3.308 0 0 1.050-0.336 3.438 1.281 0.997-0.277 2.066-0.416 3.129-0.421 1.062 0.005 2.132 0.144 3.131 0.421 2.386-1.617 3.434-1.281 3.434-1.281 0.68 1.722 0.253 2.993 0.123 3.308 0.801 0.875 1.286 1.991 1.286 3.355 0 4.801-2.924 5.858-5.708 6.168 0.448 0.388 0.848 1.149 0.848 2.315 0 1.673-0.015 3.019-0.015 3.43 0 0.333 0.225 0.723 0.859 0.6 4.964-1.655 8.541-6.339 8.541-11.86 0-6.904-5.597-12.5-12.5-12.5z"></path>
</svg>
