<svg xmlns="http://www.w3.org/2000/svg" viewBox="0 0 496.941 496.941" width="50" height="50"><g fill="#9178ed"><path d="M146.824 133.647H54.965C24.847 133.647 0 161.506 0 196.141v156.612c0 4.518 3.012 7.529 7.529 7.529h32.376v110.682c0 14.306 11.294 25.6 25.6 25.6h71.529c14.306 0 25.6-11.294 25.6-25.6V361.035h32.376c4.518 0 7.529-3.012 7.529-7.529V196.141c.002-34.635-24.845-62.494-55.715-62.494zm40.658 212.329h-24.847v-79.812c0-4.518-3.012-7.529-7.529-7.529s-7.529 3.012-7.529 7.529v205.553c0 6.023-4.518 10.541-10.541 10.541h-28.612V358.776c0-4.518-3.012-7.529-7.529-7.529s-7.529 3.012-7.529 7.529v123.482h-27.86c-6.023 0-10.541-4.518-10.541-10.541V266.165c0-4.518-3.012-7.529-7.529-7.529s-7.529 3.012-7.529 7.529v79.812H15.059V196.141c0-26.353 18.071-47.435 39.906-47.435h91.859c22.588 0 40.659 21.082 40.659 47.435v149.835zM100.894 123.859c33.882 0 61.741-27.859 61.741-61.741S134.776.377 100.894.377 39.906 28.236 39.906 62.118s27.106 61.741 60.988 61.741zm0-108.424c25.6 0 46.682 21.082 46.682 46.682s-21.082 46.682-46.682 46.682-46.682-21.082-46.682-46.682c.753-25.599 21.082-46.682 46.682-46.682zM408.847 217.224c3.765 21.082 21.835 36.894 43.671 36.894 24.847 0 44.424-19.576 44.424-44.424 0-24.847-20.329-44.424-44.424-44.424-21.835 0-39.906 15.812-43.671 36.894h-82.824V98.259h82.824c3.765 21.082 21.835 36.894 43.671 36.894 24.847 0 44.424-19.576 44.424-44.424 0-24.847-20.329-44.424-44.424-44.424-21.835 0-39.906 15.812-43.671 36.894h-90.353c-4.518 0-7.529 3.012-7.529 7.529v170.165h-30.871v-81.318c0-4.518-3.012-7.529-7.529-7.529H225.13c-4.518 0-7.529 3.012-7.529 7.529 0 4.518 3.012 7.529 7.529 7.529h39.906v162.635H225.13c-4.518 0-7.529 3.012-7.529 7.529s3.012 7.529 7.529 7.529h47.435c4.518 0 7.529-3.012 7.529-7.529V275.95h30.871v170.918c0 4.518 3.012 7.529 7.529 7.529h90.353c3.765 21.082 21.835 36.894 43.671 36.894 24.847 0 44.424-19.576 44.424-44.424s-20.329-44.424-44.424-44.424c-21.835 0-39.906 15.812-43.671 36.894h-82.824V335.435h82.824c3.765 21.082 21.835 36.894 43.671 36.894 24.847 0 44.424-19.576 44.424-44.424 0-24.847-20.329-44.424-44.424-44.424-21.835 0-39.906 15.812-43.671 36.894h-82.824V217.224h82.824zm43.671-36.895c16.565 0 29.365 12.8 29.365 29.365s-13.553 29.365-29.365 29.365c-16.565 0-29.365-12.8-29.365-29.365s12.8-29.365 29.365-29.365zm0-118.964c16.565 0 29.365 12.8 29.365 29.365 0 16.565-13.553 29.365-29.365 29.365-16.565 0-29.365-12.8-29.365-29.365 0-16.565 12.8-29.365 29.365-29.365zm0 356.141c16.565 0 29.365 12.8 29.365 29.365s-13.553 29.365-29.365 29.365c-16.565 0-29.365-12.8-29.365-29.365s12.8-29.365 29.365-29.365zm0-118.965c16.565 0 29.365 12.8 29.365 29.365s-13.553 29.365-29.365 29.365c-16.565 0-29.365-12.8-29.365-29.365s12.8-29.365 29.365-29.365z"/></g></svg>