<svg xmlns="http://www.w3.org/2000/svg" viewBox="0 0 612 612" width="50" height="50"><g fill="#9178ed"><path d="M306.001 23.596c-118.01 0-214.019 96.011-214.019 214.023 0 83.39 47.946 155.785 117.712 191.09v127.48c0 30.775 25.038 55.811 55.811 55.811h80.992c30.773 0 55.811-25.038 55.811-55.811V428.708c69.766-35.303 117.715-107.699 117.715-191.088 0-118.013-96.012-214.024-214.022-214.024zm16.645 390.976c-5.483.511-11.034.786-16.646.786-5.616 0-11.167-.275-16.65-.786 1.24-24.823.638-72.259-16.962-113.969h67.222c-17.599 41.711-18.201 89.148-16.964 113.969zm43.382 104.58H245.974v-76.096c19.053 5.577 39.194 8.582 60.027 8.582s40.974-3.004 60.027-8.582v76.096zm0 37.036c0 10.771-8.76 19.531-19.531 19.531h-80.992c-10.771 0-19.531-8.762-19.531-19.531v-.756h120.054v.756zm-7.311-148.811c-.842-27.958 1.487-79.666 26.262-114.374a18.141 18.141 0 0 0-14.766-28.679H241.787a18.139 18.139 0 0 0-14.762 28.679c24.775 34.711 27.101 86.424 26.259 114.374-72.347-22.513-125.022-90.1-125.022-169.759 0-98.007 79.731-177.743 177.739-177.743s177.742 79.736 177.742 177.743c0 79.66-52.679 147.247-125.026 169.759zM71.591 78.157a18.084 18.084 0 0 0 12.825 5.314c4.644 0 9.285-1.772 12.828-5.315 7.084-7.084 7.084-18.569 0-25.653L50.053 5.314c-7.085-7.085-18.571-7.085-25.655 0-7.082 7.085-7.082 18.569 0 25.653l47.193 47.19zM527.584 83.47c4.644 0 9.286-1.772 12.828-5.314l47.187-47.188c7.087-7.085 7.087-18.569 0-25.655s-18.571-7.084-25.655 0l-47.187 47.188c-7.087 7.085-7.087 18.571 0 25.655a18.089 18.089 0 0 0 12.827 5.314zM540.412 397.078c-7.084-7.085-18.568-7.087-25.654-.002-7.087 7.085-7.087 18.569 0 25.653l47.187 47.191a18.082 18.082 0 0 0 12.828 5.314c4.641 0 9.283-1.772 12.825-5.314 7.087-7.082 7.087-18.569 0-25.653l-47.186-47.189zM71.591 397.076l-47.193 47.191c-7.082 7.084-7.082 18.569 0 25.655a18.086 18.086 0 0 0 12.828 5.314c4.641 0 9.286-1.77 12.825-5.314l47.193-47.191c7.084-7.085 7.084-18.569 0-25.655-7.082-7.085-18.569-7.085-25.653 0z"/></g></svg>