<svg xmlns="http://www.w3.org/2000/svg" viewBox="0 0 58 58" width="50" height="50"><g fill="#9178ed"><path d="M50.949 12.187l-1.361-1.361-9.504-9.505-.001-.001-.771-.771A1.867 1.867 0 0 0 37.985 0H8.963C7.776 0 6.5.916 6.5 2.926V56c0 .837.841 1.652 1.836 1.909.051.014.1.033.152.043.156.031.315.048.475.048h40.074c.16 0 .319-.017.475-.048.052-.01.101-.029.152-.043.995-.257 1.836-1.072 1.836-1.909V13.978c0-.767-.093-1.334-.551-1.791zM39.5 3.565L47.935 12H39.5V3.565zM8.963 56c-.071 0-.135-.025-.198-.049a.46.46 0 0 1-.265-.414V41h41v14.537a.46.46 0 0 1-.265.414c-.063.024-.127.049-.198.049H8.963zM8.5 39V2.926c0-.217.033-.926.463-.926h28.595a1.54 1.54 0 0 0-.058.391V14h11.608c.135 0 .265-.025.391-.058l.001.036V39h-41z"/><path d="M16.814 48.34h-4.361v-4.416h-1.668V54h1.668v-4.539h4.361V54h1.641V43.924h-1.641zM20.438 45.045h3.007V54H25.1v-8.955h3.007v-1.121h-7.669zM34.725 50.814l-2.995-6.89h-1.667V54h1.667v-6.932L34 52.674h1.449l2.256-5.606V54h1.668V43.924h-1.668zM43.57 43.924h-1.668V54h6.303v-1.244H43.57zM24.207 17.293a.999.999 0 0 0-1.414 0l-6 6a.999.999 0 0 0 0 1.414l6 6a.997.997 0 0 0 1.414 0 .999.999 0 0 0 0-1.414L18.914 24l5.293-5.293a.999.999 0 0 0 0-1.414zM36.207 17.293a.999.999 0 1 0-1.414 1.414L40.086 24l-5.293 5.293a.999.999 0 1 0 1.414 1.414l6-6a.999.999 0 0 0 0-1.414l-6-6z"/></g></svg>