<?xml version="1.0" encoding="utf-8"?>
<!-- Generated by IcoMoon.io -->
<!DOCTYPE svg PUBLIC "-//W3C//DTD SVG 1.1//EN" "http://www.w3.org/Graphics/SVG/1.1/DTD/svg11.dtd">
<svg version="1.1" xmlns="http://www.w3.org/2000/svg" xmlns:xlink="http://www.w3.org/1999/xlink" width="25" height="25" viewBox="0 0 25 25">
<path fill="#fff" d="M22.656 0h-20.313c-1.289 0-2.344 1.055-2.344 2.344v20.313c0 1.289 1.055 2.344 2.344 2.344h20.313c1.289 0 2.344-1.055 2.344-2.344v-20.313c0-1.289-1.055-2.344-2.344-2.344zM9.375 20.313h-3.125v-10.938h3.125v10.938zM7.813 7.813c-0.864 0-1.563-0.698-1.563-1.563s0.698-1.563 1.563-1.563c0.864 0 1.563 0.698 1.563 1.563s-0.698 1.563-1.563 1.563zM20.313 20.313h-3.125v-6.25c0-0.864-0.698-1.563-1.563-1.563s-1.563 0.698-1.563 1.563v6.25h-3.125v-10.938h3.125v1.938c0.645-0.884 1.631-1.938 2.734-1.938 1.943 0 3.516 1.748 3.516 3.906v7.031z"></path>
</svg>
