<?xml version="1.0" encoding="utf-8"?>
<!-- Generated by IcoMoon.io -->
<!DOCTYPE svg PUBLIC "-//W3C//DTD SVG 1.1//EN" "http://www.w3.org/Graphics/SVG/1.1/DTD/svg11.dtd">
<svg version="1.1" xmlns="http://www.w3.org/2000/svg" xmlns:xlink="http://www.w3.org/1999/xlink" width="25" height="25" viewBox="0 0 25 25">
<path fill="#fff" d="M25 5.527c-0.918 0.41-1.909 0.684-2.944 0.806 1.060-0.635 1.87-1.641 2.256-2.837-0.991 0.586-2.090 1.016-3.257 1.245-0.938-0.996-2.271-1.616-3.745-1.616-2.832 0-5.127 2.295-5.127 5.127 0 0.4 0.044 0.791 0.132 1.167-4.263-0.215-8.042-2.256-10.571-5.361-0.439 0.757-0.693 1.641-0.693 2.578 0 1.777 0.903 3.35 2.28 4.268-0.84-0.024-1.631-0.259-2.324-0.64 0 0.020 0 0.044 0 0.063 0 2.485 1.768 4.561 4.116 5.029-0.43 0.117-0.884 0.181-1.353 0.181-0.332 0-0.649-0.034-0.967-0.093 0.654 2.036 2.549 3.521 4.79 3.564-1.758 1.377-3.965 2.197-6.372 2.197-0.415 0-0.82-0.024-1.226-0.073 2.275 1.46 4.971 2.305 7.866 2.305 9.434 0 14.595-7.817 14.595-14.595 0-0.225-0.005-0.444-0.015-0.664 1.001-0.718 1.87-1.621 2.559-2.651z"></path>
</svg>
